HIERARCHY
ROOT Hips
{
 OFFSET 0.000000 0.000000 0.000000
 CHANNELS 6 Xposition Yposition Zposition Yrotation Xrotation Zrotation
 JOINT Chest
 {
  OFFSET 0.000000 9.585900 0.002600
  CHANNELS 3 Yrotation Xrotation Zrotation
  JOINT Chest2
  {
   OFFSET 0.000000 9.601200 -0.005300
   CHANNELS 3 Yrotation Xrotation Zrotation
   JOINT Chest3
   {
    OFFSET 0.000000 9.561800 0.000000
    CHANNELS 3 Yrotation Xrotation Zrotation
    JOINT Chest4
    {
     OFFSET 0.000000 9.552100 0.000000
     CHANNELS 3 Yrotation Xrotation Zrotation
     JOINT Neck
     {
      OFFSET 0.000000 14.453000 0.000000
      CHANNELS 3 Yrotation Xrotation Zrotation
      JOINT Head
      {
       OFFSET 0.000000 8.936500 -0.011300
       CHANNELS 3 Yrotation Xrotation Zrotation
       End Site
       {
        OFFSET 0.000000 17.073600 -0.006000
       }
      }
     }
     JOINT RightCollar
     {
      OFFSET -2.921100 9.558500 0.000000
      CHANNELS 3 Yrotation Xrotation Zrotation
      JOINT RightShoulder
      {
       OFFSET -13.519700 0.000000 0.000000
       CHANNELS 3 Yrotation Xrotation Zrotation
       JOINT RightElbow
       {
        OFFSET 0.000000 -29.696600 0.000000
        CHANNELS 3 Yrotation Xrotation Zrotation
        JOINT RightWrist
        {
         OFFSET 0.000000 -24.004700 0.000000
         CHANNELS 3 Yrotation Xrotation Zrotation
         End Site
         {
          OFFSET 0.000000 -17.728500 0.000000
         }
        }
       }
      }
     }
     JOINT LeftCollar
     {
      OFFSET 2.921100 9.558500 0.000000
      CHANNELS 3 Yrotation Xrotation Zrotation
      JOINT LeftShoulder
      {
       OFFSET 13.519700 0.000000 0.000000
       CHANNELS 3 Yrotation Xrotation Zrotation
       JOINT LeftElbow
       {
        OFFSET 0.000000 -29.696600 0.000000
        CHANNELS 3 Yrotation Xrotation Zrotation
        JOINT LeftWrist
        {
         OFFSET 0.000000 -24.004700 0.000000
         CHANNELS 3 Yrotation Xrotation Zrotation
         End Site
         {
          OFFSET 0.000000 -17.728500 0.000000
         }
        }
       }
      }
     }
    }
   }
  }
 }
 JOINT RightHip
 {
  OFFSET -7.771700 -0.012900 -0.001300
  CHANNELS 3 Yrotation Xrotation Zrotation
  JOINT RightKnee
  {
   OFFSET 0.000000 -40.869800 0.001200
   CHANNELS 3 Yrotation Xrotation Zrotation
   JOINT RightAnkle
   {
    OFFSET 0.000000 -39.717900 0.002100
    CHANNELS 3 Yrotation Xrotation Zrotation
    JOINT RightToe
    {
     OFFSET 0.000000 -4.965400 11.033500
     CHANNELS 3 Yrotation Xrotation Zrotation
     End Site
     {
      OFFSET 0.000000 -1.423100 5.872300
     }
    }
   }
  }
 }
 JOINT LeftHip
 {
  OFFSET 7.771700 -0.012900 -0.001300
  CHANNELS 3 Yrotation Xrotation Zrotation
  JOINT LeftKnee
  {
   OFFSET 0.000000 -40.869800 0.001200
   CHANNELS 3 Yrotation Xrotation Zrotation
   JOINT LeftAnkle
   {
    OFFSET 0.000000 -39.717900 0.002100
    CHANNELS 3 Yrotation Xrotation Zrotation
    JOINT LeftToe
    {
     OFFSET 0.000000 -4.965400 11.033500
     CHANNELS 3 Yrotation Xrotation Zrotation
     End Site
     {
      OFFSET 0.000000 -1.423100 5.872300
     }
    }
   }
  }
 }
}
MOTION
Frames: 13
Frame Time: 0.008333
0.000000 85.388000 0.000000 0.000000 -5.767877 0.000000 0.000000 11.653817 0.000000 0.000000 -5.885947 0.000000 0.000000 -0.000000 0.000000 0.000000 -0.000000 0.000000 0.000000 12.528835 0.000000 0.000000 0.711642 0.000000 0.000000 -0.000000 0.000000 0.000000 0.000000 -90.000000 0.000000 -2.309062 0.000000 0.000000 2.309062 0.000000 0.000000 -0.000000 0.000000 0.000000 -0.000000 90.000000 0.000000 -2.309062 0.000000 0.000000 2.309062 0.000000 0.000000 8.520406 0.000000 0.000000 1.905762 0.000000 -0.000000 -4.658285 0.000000 0.000000 -0.000000 0.000000 0.000000 8.520406 0.000000 0.000000 1.905762 0.000000 -0.000000 -4.658285 0.000000 0.000000 -0.000000 0.000000
-163.581521 49.184995 17.784763 -179.560297 -29.225233 -4.019102 0.393083 14.582327 3.264339 0.016965 1.348344 0.273797 -0.002855 2.216415 0.494336 0.330306 13.055216 2.862010 6.891611 25.353011 0.484374 12.232655 11.441428 -0.706720 -7.139185 -2.748118 -2.500106 -5.923077 -7.958848 -12.213872 -49.533355 -43.393821 93.932783 0.622438 0.073292 -7.170922 0.397908 -4.450929 4.499840 0.697369 -5.094754 12.294056 61.145637 -52.885710 -97.781229 4.372285 7.953938 -9.123167 -1.511268 -55.636566 -10.488223 -175.365035 83.179972 -163.870708 -29.464189 -2.255673 -2.263491 -0.092877 -11.236957 1.120346 -16.270583 -56.975842 16.824216 -70.786877 65.767734 -76.080993 30.690183 6.964828 15.851234 -0.045103 -0.149766 -0.014041
-163.580890 49.184049 17.788136 -179.554300 -29.225214 -4.026545 0.371381 14.564571 3.276359 0.021066 1.347171 0.273234 -0.010765 2.212009 0.497837 0.316841 13.044788 2.873074 6.926895 25.341257 0.465040 12.295777 11.424708 -0.746243 -7.124824 -2.716652 -2.493189 -5.876153 -8.017787 -12.174636 -49.675324 -43.472091 94.076094 0.665467 0.167735 -7.149415 0.405230 -4.432416 4.486397 0.632781 -5.095622 12.303432 61.110075 -52.967774 -97.790653 4.269593 8.021217 -9.374861 -1.517489 -55.635699 -10.480705 -175.331673 83.184278 -163.832464 -29.471182 -2.254230 -2.266605 -0.103424 -11.234975 1.123382 -16.277279 -56.975253 16.833595 -70.770194 65.762129 -76.061295 30.685599 6.976084 15.851114 -0.039896 -0.150345 -0.013128
-163.580264 49.183371 17.791440 -179.552326 -29.230006 -4.032479 0.351587 14.552360 3.287665 0.020583 1.342890 0.276599 -0.014598 2.211084 0.497676 0.302468 13.034756 2.885189 6.961721 25.331587 0.445652 12.362838 11.410784 -0.789411 -7.110838 -2.683945 -2.487884 -5.820191 -8.101008 -12.143009 -49.822130 -43.543957 94.230301 0.723440 0.280404 -7.132942 0.413061 -4.416719 4.471433 0.560396 -5.092507 12.313827 61.080653 -53.068893 -97.806801 4.168023 8.092508 -9.642711 -1.524514 -55.629982 -10.470340 -175.293036 83.189210 -163.789713 -29.474760 -2.253866 -2.271310 -0.110115 -11.232472 1.125151 -16.279920 -56.969415 16.844098 -70.748480 65.759858 -76.043016 30.680111 6.984838 15.858597 -0.038542 -0.151549 -0.014365
-163.581167 49.181799 17.796514 -179.551304 -29.225777 -4.029248 0.329533 14.532567 3.290802 0.017957 1.340206 0.275821 -0.016281 2.209238 0.501583 0.287550 13.025740 2.896931 7.001572 25.311242 0.430022 12.404917 11.424289 -0.821181 -7.098294 -2.647112 -2.485960 -5.758829 -8.215973 -12.118742 -49.966359 -43.579740 94.400652 0.801537 0.415442 -7.130822 0.389862 -4.428275 4.474941 0.503231 -5.059339 12.305901 61.060143 -53.183509 -97.826161 4.068980 8.165706 -9.922867 -1.521305 -55.629272 -10.480548 -175.314090 83.191062 -163.813307 -29.411643 -2.258919 -2.282759 -0.172257 -11.226196 1.137934 -16.275064 -56.977234 16.841075 -70.724809 65.754303 -76.012160 30.655106 6.971129 15.846456 -0.022275 -0.115346 -0.007101
-163.579926 49.181148 17.800591 -179.555979 -29.231854 -4.036805 0.321026 14.527368 3.307838 -0.010517 1.316851 0.294829 -0.001556 2.225474 0.489482 0.266971 13.018561 2.906894 7.039113 25.304254 0.408972 12.477100 11.415823 -0.867705 -7.080758 -2.608569 -2.491014 -5.691618 -8.364517 -12.102670 -50.098620 -43.548927 94.585991 0.899437 0.579470 -7.145661 0.306507 -4.483582 4.509199 0.496503 -4.978992 12.266955 61.047646 -53.302907 -97.843878 3.970999 8.236208 -10.215677 -1.536210 -55.622858 -10.461232 -175.233935 83.193869 -163.731818 -29.380397 -2.257851 -2.293387 -0.107941 -11.226607 1.124713 -16.278417 -56.972381 16.855916 -70.727714 65.749975 -76.010805 30.653452 6.979381 15.840957 -0.019073 -0.117531 -0.003651
-163.578643 49.180169 17.805682 -179.548868 -29.232550 -4.051353 0.312282 14.525041 3.321886 -0.019129 1.312673 0.299842 -0.023683 2.215551 0.501371 0.237494 13.013026 2.914971 7.080703 25.299129 0.384602 12.578953 11.398785 -0.931388 -7.052652 -2.573155 -2.501179 -5.619269 -8.544556 -12.097392 -50.201970 -43.437429 94.777280 1.007356 0.775155 -7.173513 0.262012 -4.517222 4.520081 0.452618 -4.922977 12.244947 61.040293 -53.417604 -97.859573 3.875656 8.303012 -10.521442 -1.566354 -55.626169 -10.433463 -175.068315 83.192145 -163.569290 -29.362111 -2.256455 -2.298405 -0.109051 -11.222977 1.123120 -16.290706 -56.974242 16.863144 -70.730813 65.752416 -76.005059 30.676737 7.024406 15.846422 -0.029659 -0.159859 -0.008398
-163.581028 49.179690 17.809658 -179.549866 -29.242881 -4.041586 0.280065 14.522702 3.322297 -0.034868 1.306634 0.306605 0.000234 2.227210 0.486760 0.181942 12.997818 2.935177 7.128443 25.314808 0.345751 12.663483 11.379682 -0.983194 -7.015365 -2.540217 -2.511296 -5.549506 -8.760486 -12.107169 -50.259799 -43.244610 94.962655 1.114773 0.998488 -7.206178 0.240512 -4.536025 4.514650 0.384271 -4.880089 12.236785 61.044142 -53.521631 -97.880592 3.786382 8.370651 -10.840609 -1.554711 -55.612892 -10.446498 -175.030421 83.200104 -163.528878 -29.370677 -2.255396 -2.306481 -0.109363 -11.221915 1.127563 -16.268526 -56.970582 16.835841 -70.719731 65.754169 -75.985098 30.653957 7.004798 15.832333 -0.016162 -0.123308 -0.001778
-163.580497 49.179001 17.814652 -179.538192 -29.248139 -4.057873 0.236752 14.514678 3.343591 -0.051288 1.300284 0.311263 0.027793 2.240505 0.472978 0.120489 12.979591 2.954392 7.180676 25.334635 0.306206 12.749888 11.365527 -1.039724 -6.973106 -2.506297 -2.517515 -5.487536 -9.021051 -12.133027 -50.258374 -42.980732 95.128106 1.206569 1.234443 -7.237794 0.216000 -4.551826 4.503382 0.313180 -4.834107 12.238033 61.069400 -53.619031 -97.914790 3.703656 8.440496 -11.180358 -1.577282 -55.609567 -10.428751 -175.006868 83.205076 -163.499215 -29.388815 -2.256225 -2.312680 -0.031462 -11.218274 1.114118 -16.289507 -56.966588 16.845224 -70.721405 65.756780 -75.981257 30.672376 7.047521 15.833924 -0.023850 -0.162959 -0.004942
-163.581184 49.178699 17.818932 -179.537070 -29.260969 -4.065133 0.200128 14.513952 3.359681 -0.059710 1.295010 0.309086 -0.026265 2.216895 0.496128 0.165859 13.010291 2.924045 7.190052 25.278408 0.318988 12.850143 11.420344 -1.118844 -6.974266 -2.483774 -2.492782 -5.418609 -9.333531 -12.171175 -50.186790 -42.655224 95.252715 1.262478 1.459218 -7.262292 0.139698 -4.582390 4.509137 0.249393 -4.784691 12.253828 61.119694 -53.713761 -97.964344 3.619337 8.508587 -11.549305 -1.583198 -55.592981 -10.432945 -175.135277 83.202520 -163.632233 -29.293780 -2.259239 -2.328361 -0.103986 -11.215042 1.130427 -16.290123 -56.958334 16.842167 -70.729476 65.761978 -75.984407 30.670552 7.051303 15.832411 -0.026488 -0.162707 -0.006562
-163.583981 49.177584 17.824382 -179.536006 -29.267621 -4.063874 0.154275 14.503643 3.361403 -0.065469 1.291309 0.309163 -0.004834 2.227330 0.488991 0.146282 13.006965 2.927003 7.215993 25.279857 0.304386 12.945857 11.417625 -1.175331 -6.982919 -2.458261 -2.465411 -5.318580 -9.698784 -12.216689 -50.045673 -42.267248 95.319070 1.270114 1.648512 -7.272439 0.052497 -4.609970 4.508373 0.199182 -4.734046 12.282129 61.194595 -53.807123 -98.031426 3.522638 8.566603 -11.948965 -1.584754 -55.588571 -10.434774 -175.130269 83.216597 -163.614424 -29.369490 -2.255243 -2.335663 -0.089477 -11.215185 1.131393 -16.280402 -56.958274 16.824439 -70.718067 65.761898 -75.969498 30.681461 7.066267 15.839025 -0.032226 -0.168780 -0.009449
-163.587231 49.176571 17.829521 -179.542325 -29.278954 -4.060941 0.116550 14.494827 3.364688 -0.076618 1.291129 0.308787 0.021319 2.236101 0.482686 0.085273 12.983027 2.943457 7.272469 25.307274 0.268259 12.995710 11.428737 -1.205654 -6.954532 -2.414449 -2.467031 -5.176906 -10.109041 -12.269158 -49.853701 -41.813927 95.327261 1.233371 1.785397 -7.257187 -0.005579 -4.611652 4.477861 0.166701 -4.684282 12.316554 61.295445 -53.904568 -98.118746 3.407513 8.606991 -12.383252 -1.591078 -55.583227 -10.417824 -175.081682 83.228842 -163.567816 -29.452156 -2.244154 -2.329549 -0.110301 -11.215880 1.134308 -16.267731 -56.951626 16.810420 -70.721648 65.756027 -75.972450 30.693888 7.067597 15.843163 -0.035755 -0.167386 -0.011351
-163.590188 49.174778 17.835960 -179.547728 -29.283290 -4.064581 0.028093 14.469248 3.367625 -0.042205 1.305278 0.299215 -0.031671 2.213473 0.495908 0.014362 12.968142 2.949642 7.387857 25.347366 0.211253 13.128410 11.452052 -1.278785 -6.837366 -2.356128 -2.506137 -4.995371 -10.550456 -12.332041 -49.640529 -41.303220 95.293601 1.171706 1.869319 -7.199416 0.015711 -4.584603 4.412278 0.151466 -4.637718 12.350082 61.425796 -54.010030 -98.226915 3.273064 8.629865 -12.861717 -1.606129 -55.583339 -10.397325 -175.114053 83.239936 -163.604699 -29.483224 -2.236274 -2.331341 -0.109604 -11.215213 1.134060 -16.270398 -56.947651 16.816333 -70.723579 65.736977 -75.964526 30.686641 7.078740 15.831218 -0.029505 -0.161556 -0.009904
